<svg width="116" height="48" viewBox="0 0 116 48" fill="none" xmlns="http://www.w3.org/2000/svg">
<path d="M37.2464 21.4076C37.2464 19.346 35.1848 17.1469 31.7488 17.1469C27.9005 17.1469 23.5024 20.0332 22.8152 25.8057C22.128 31.5782 25.7014 34.1896 29.4123 34.1896C33.1232 34.1896 34.91 32.8152 36.8341 30.891C35.1848 28.8294 32.9858 29.7915 32.5735 29.9289C32.1611 30.2038 31.4739 30.4787 30.3744 30.4787C29 30.4787 27.4881 29.7915 27.4881 27.1801C36.5592 26.218 37.2464 23.4692 37.2464 21.4076ZM32.8483 21.6825C32.8483 22.3697 32.5735 23.4692 28.0379 24.019C29 20.5829 30.7867 20.3081 31.6114 20.3081C32.436 20.4455 32.8483 20.9953 32.8483 21.6825ZM17.5924 22.2322C17.5924 22.2322 15.6682 28.2796 15.5308 28.8294C15.5308 28.2796 14.019 17.4218 14.019 17.4218C10.7204 17.4218 8.93365 19.7583 8.109 22.2322C8.109 22.2322 5.77251 28.2796 5.63507 28.8294C5.49763 28.4171 5.22275 22.3697 5.22275 22.3697C4.94787 19.346 2.19905 17.4218 0 17.4218L2.74882 33.9147C6.18483 33.9147 8.109 31.5782 9.07109 29.1043C9.07109 29.1043 11.1327 23.7441 11.2701 23.4692C11.2701 23.7441 12.782 33.9147 12.782 33.9147C16.218 33.9147 18.1422 31.7156 19.1043 29.3791L23.9147 17.4218C20.3412 17.4218 18.5545 19.7583 17.5924 22.2322ZM50.0284 17.0095C47.9668 17.0095 46.3175 18.109 44.9431 19.8957L46.0427 10C43.1564 10 40.9573 12.4739 40.4076 16.0474L38.2085 33.7772C39.8578 33.7772 41.5071 33.3649 42.4692 32.128C43.2938 33.2275 44.5308 34.0521 46.3175 34.0521C51.128 34.0521 54.4265 28.5545 54.4265 23.3318C54.564 18.5213 52.2275 17.0095 50.0284 17.0095ZM49.4787 25.5308C48.9289 28.4171 47.4171 30.3412 45.7678 30.3412C44.2559 30.3412 43.5687 29.654 43.5687 29.654C43.8436 27.1801 44.1185 25.5308 44.6682 24.1564C45.218 22.782 46.5924 20.7204 47.9668 20.7204C49.3412 20.8578 50.0284 22.6446 49.4787 25.5308ZM66.5213 17.4218H63.2227V17.2844C63.4976 15.0853 63.91 13.9858 65.6967 13.8483C66.7962 13.7109 67.346 13.1611 67.4834 12.4739C67.6208 11.9242 67.8957 10.1374 67.8957 10.1374C61.1611 10.1374 59.0995 13.0237 58.5498 17.4218V17.5592H58.4123C57.3128 17.5592 56.0758 18.7962 55.9384 20.3081L55.8009 20.8578H58L56.0758 36.2512L55.5261 39C55.6635 39 55.6635 39 55.8009 39C58.9621 38.8626 60.8863 36.3886 61.436 32.8152L62.9479 20.7204H64.0474C65.0095 20.7204 66.2465 19.7583 66.5213 17.9716V17.4218ZM83.8389 17.1469C79.9905 17.1469 76.4171 20.0332 75.3175 24.4313C74.218 28.8294 75.8673 34.1896 81.5024 34.1896C87.1374 34.1896 90.436 28.6919 90.436 24.1564C90.2986 19.6209 87.2749 17.1469 83.8389 17.1469ZM85.3507 25.3934C85.2133 27.455 84.2512 30.4787 81.7772 30.4787C79.3033 30.4787 79.7156 26.9052 79.8531 25.2559C80.128 23.4692 81.09 20.8578 83.2891 20.8578C85.3507 20.8578 85.6256 23.1943 85.3507 25.3934ZM109.403 22.2322C109.403 22.2322 107.479 28.2796 107.341 28.8294C107.341 28.2796 105.829 17.4218 105.829 17.4218C102.531 17.4218 100.744 19.7583 99.9194 22.2322C99.9194 22.2322 97.5829 28.2796 97.4455 28.8294C97.4455 28.4171 97.0332 22.3697 97.0332 22.3697C96.8957 19.346 94.0095 17.5592 91.8104 17.5592L94.5592 34.0521C97.9953 34.0521 99.9194 31.7156 100.882 29.2417C100.882 29.2417 102.943 23.8815 103.081 23.6066C103.081 23.8815 104.592 34.0521 104.592 34.0521C108.028 34.0521 109.953 31.8531 110.915 29.5166L115.45 17.4218C112.014 17.4218 110.227 19.7583 109.403 22.2322ZM69.6825 10.1374L66.9336 32.6777L66.3839 35.4265C66.5213 35.4265 66.5213 35.4265 66.6588 35.4265C69.6825 35.4265 71.8815 32.6777 72.1564 29.3791L73.8057 16.4597C74.218 12.6114 71.7441 10.1374 69.6825 10.1374Z" fill="#BBC0D0"/>
</svg>
