<svg width="506" height="117" viewBox="0 0 506 117" fill="none" xmlns="http://www.w3.org/2000/svg">
<path d="M187.454 55.827V40.6454H173.569V23.5049L157.718 28.2797V40.6454H147.028V55.827H157.718V81.2929C157.718 97.8213 165.214 104.31 187.454 101.862V87.537C178.361 88.0267 173.569 87.9043 173.569 81.2929V55.827H187.454Z" fill="#0A1133"/>
<path d="M211.754 40.6454H195.903V101.862H211.754V62.12C211.754 56.3395 213.229 57.0513 230.431 57.0513V40.6454H211.754Z" fill="#0A1133"/>
<path d="M243.879 33.2994C249.285 33.2994 253.709 28.8919 253.709 23.6273C253.709 18.3627 249.285 13.8327 243.879 13.8327C238.595 13.8327 234.172 18.3627 234.172 23.6273C234.172 28.8919 238.595 33.2994 243.879 33.2994ZM236.015 101.862H251.866V40.6454H236.015V101.862Z" fill="#0A1133"/>
<path d="M309.257 20.0893V47.8689C304.833 42.237 298.321 38.9313 289.351 38.9313C272.886 38.9313 259.37 53.011 259.37 71.2535C259.37 89.4959 272.886 103.576 289.351 103.576C298.321 103.576 304.833 100.27 309.257 94.638V101.862H325.107V16.1589L309.257 20.0893ZM292.3 88.5164C282.47 88.5164 275.22 81.5378 275.22 71.2535C275.22 60.9691 282.47 53.9905 292.3 53.9905C302.007 53.9905 309.257 60.9691 309.257 71.2535C309.257 81.5378 302.007 88.5164 292.3 88.5164Z" fill="#0A1133"/>
<path d="M349.311 77.7424H395.634C396.003 75.661 396.248 73.5797 396.248 71.2535C396.248 53.2559 383.347 38.9313 365.161 38.9313C345.87 38.9313 332.723 53.011 332.723 71.2535C332.723 89.4959 345.747 103.576 366.39 103.576C378.186 103.576 387.402 98.8007 393.177 90.4753L380.398 83.1294C377.695 86.6799 372.78 89.251 366.636 89.251C358.28 89.251 351.522 85.8229 349.311 77.7424ZM349.065 65.4991C350.908 57.6635 356.683 53.1335 365.161 53.1335C371.797 53.1335 378.432 56.684 380.398 65.4991H349.065Z" fill="#0A1133"/>
<path d="M437.787 38.9313C429.554 38.9313 419.478 39.2599 419.478 39.2599H403.628V101.862H419.478V60.3815C419.478 53.0204 421.043 53.6232 432.995 53.6232C440.121 53.6232 445.159 57.9083 445.159 66.2337V101.862H461.01V64.2748C461.01 47.9913 450.811 38.9313 437.787 38.9313Z" fill="#0A1133"/>
<path d="M506 55.827V40.6454H492.115V23.5049L476.264 28.2797V40.6454H465.574V55.827H476.264V81.2929C476.264 97.8213 483.76 104.31 506 101.862V87.537C496.907 88.0267 492.115 87.9043 492.115 81.2929V55.827H506Z" fill="#0A1133"/>
<path fill-rule="evenodd" clip-rule="evenodd" d="M35.3354 35.4758H115.882V70.7376H70.5973V116.022H35.3354V35.4758Z" fill="#1585ED"/>
<rect y="0.433472" width="35.4082" height="35.4082" fill="#0A1133"/>
</svg>
