<svg width="499" height="156" viewBox="0 0 499 156" fill="none" xmlns="http://www.w3.org/2000/svg">
<path d="M138.956 25.4526L79.7556 1.23158C77.7 0.410526 76.0556 0 74 0C71.9444 0 70.3 0.410526 68.2444 1.23158L9.04445 25.4526C3.7 27.9158 0 33.2526 0 39C0 99.3474 35.3556 141.221 68.2444 154.768C71.9445 156.411 76.0556 156.411 79.7556 154.768C106.067 144.095 148 106.326 148 39C148 33.2526 144.3 27.9158 138.956 25.4526Z" fill="#0E6AE0"/>
<path d="M71.12 61V41.8H52.64V47.176H65.024V51.4C65.024 53.416 63.824 54.52 60.176 54.52H45.152C42.08 54.52 41.264 53.896 41.264 49.336V38.68C41.264 35.416 42.128 34.504 45.152 34.504H61.424C63.968 34.504 65.024 35.752 65.648 37.048L69.728 32.824C69.008 31 66.704 27.976 61.856 27.976H45.104C36.944 27.976 34.832 30.76 34.832 38.68V50.296C34.832 58.552 36.944 61 45.104 61H59.12C62.816 61 65.024 58.888 65.456 56.968L65.648 61H71.12ZM102.997 61C110.101 61 113.077 59.032 113.077 52.216V50.056C113.077 46.072 110.821 44.296 107.941 43.912C110.821 43.432 112.309 41.704 112.309 38.488V36.424C112.309 29.896 109.909 27.976 102.997 27.976H76.6925V61H102.997ZM106.645 51.448C106.645 53.656 105.829 54.52 102.997 54.52H83.1725V46.936H103.237C105.925 46.936 106.645 47.8 106.645 50.248V51.448ZM105.877 38.584C105.877 40.84 105.109 41.656 103.045 41.656H83.1725V34.504H102.997C105.109 34.504 105.877 35.224 105.877 37.336V38.584Z" fill="white"/>
<circle cx="74.5" cy="102.5" r="24.5" fill="white"/>
<mask id="mask0_7_279" style="mask-type:alpha" maskUnits="userSpaceOnUse" x="53" y="81" width="43" height="43">
<path d="M74.5 124C86.3741 124 96 114.374 96 102.5C96 90.6259 86.3741 81 74.5 81C62.6259 81 53 90.6259 53 102.5C53 114.374 62.6259 124 74.5 124Z" fill="white"/>
</mask>
<g mask="url(#mask0_7_279)">
<path d="M53 81H56.9809L63.3973 82.7637L68.8898 81H71.6949L74.5672 82.3941L77.3051 81H80.1102L86.0227 82.9148L92.0359 81H93.3629L94.3875 81.6131L96 81V84.9725L94.3287 91.5232L96 96.8898V99.6949L94.6227 102.265L96 105.305V108.11L94.7318 113.88L96 120.036V121.371L95.3449 122.287L96 124H92.0275L86.0646 122.53L80.1102 124H77.3051L74.7855 122.346L71.6949 124H68.8982L63.5484 122.304L56.9725 124H55.6371L54.7469 123.328L53 124V120.028L54.9148 113.393L53 108.119V105.313L55.1248 102.626L53 99.6949V96.8898L54.8645 91.4645L53 84.9641V83.6371L53.6719 82.982L53 81Z" fill="#EEEEEE"/>
<path d="M56.9809 81L68.8898 92.9258V81H56.9809ZM80.1102 81V92.9258L92.0359 81H80.1102ZM53 84.9641V96.8898H64.9258L53 84.9641ZM96 84.9725L84.0826 96.8898H96V84.9725ZM53 108.11V120.028L64.9174 108.11H53ZM84.0742 108.11L96 120.036V108.11H84.0742ZM68.8982 112.074L56.9725 124H68.8982V112.074ZM80.1102 112.083V124H92.0275L80.1102 112.083Z" fill="#0052B4"/>
<path d="M71.6949 81V99.6949H53V105.305H71.6949V124H77.3051V105.305H96V99.6949H77.3051V81H71.6949Z" fill="#D80027"/>
<path d="M53 81V83.6371L66.2443 96.8898H68.8898L53 81ZM93.3629 81L80.1102 94.2443V96.8898L96 81H93.3629ZM68.8898 108.11L53 124H55.6371L68.8898 110.756V108.11ZM80.1102 108.11L95.9916 124H96V121.371L82.7557 108.11H80.1102Z" fill="#D80027"/>
</g>
<path d="M201.852 134C210.624 134 214.704 132.232 214.704 125.432V121.352C214.704 115.232 210.624 112.852 202.328 112.852H188.864C186.348 112.852 185.124 112.036 185.124 109.044C185.124 105.984 186.348 105.236 188.864 105.236H212.188L213.48 97.28H188.456C179.684 97.28 175.604 99.116 175.604 105.916V109.86C175.604 116.048 179.616 118.36 187.98 118.36H201.444C203.96 118.36 205.184 119.108 205.184 122.236C205.184 125.364 203.96 126.112 201.444 126.112H176.012C175.604 128.764 175.196 131.416 174.72 134H201.852ZM259.789 134L260.945 126.112H235.377C232.249 126.112 230.345 124.82 230.345 121.08V118.836H261.693V110.2C261.693 101.02 256.457 97.28 247.549 97.28H235.377C226.537 97.28 221.301 101.02 221.301 110.2V121.08C221.301 130.26 226.537 134 235.377 134H259.789ZM252.581 113.124H230.345V110.2C230.345 106.732 231.773 105.168 235.377 105.168H247.549C251.153 105.168 252.581 106.732 252.581 110.676V113.124ZM299.024 134C305.076 134 307.728 130.328 308.68 128.084L303.648 122.984C302.9 124.616 301.608 126.112 298.548 126.112H283.588C280.46 126.112 278.556 124.548 278.556 121.08V110.2C278.556 106.732 280.46 105.168 283.588 105.168H298.208C301.268 105.168 302.492 106.664 303.308 108.364L308.272 103.196C307.388 100.952 304.668 97.28 298.684 97.28H283.588C274.748 97.28 269.512 101.02 269.512 110.2V121.08C269.512 130.26 274.748 134 283.588 134H299.024ZM336.754 134C343.078 134 346.274 132.096 347.566 128.152C347.974 132.3 350.83 134 353.754 134V97.28H344.642V122.372C344.166 124.412 342.67 126.112 340.086 126.112H329.342C325.67 126.112 324.31 124.208 324.31 120.468V97.28H315.266V119.312C315.266 129.24 318.734 134 329.342 134H336.754ZM370.862 134V109.656C371.338 106.664 373.718 104.828 377.866 104.828C380.79 104.828 382.218 105.168 383.442 106.256L384.734 98.096C383.374 97.484 381.538 97.008 379.566 97.008C375.486 97.008 372.154 98.64 370.522 102.312V97.28H361.75V134H370.862ZM399.095 94.084V84.36H389.915V94.084H399.095ZM399.027 134V97.28H389.915V134H399.027ZM427.839 125.772C427.023 126.384 425.663 126.724 423.759 126.724C419.203 126.724 417.299 123.46 417.299 117V104.012H423.827L424.915 97.28H417.299V86.128L408.187 89.12V97.28H405.127L404.039 104.012H408.187V117C408.187 128.628 411.927 134.68 421.107 134.68C423.419 134.68 425.595 134.136 426.479 133.592L427.839 125.772ZM447.627 132.3C446.539 134.34 444.431 135.768 441.643 135.768C439.127 135.768 437.359 135.36 435.523 134.476L431.307 143.044C434.367 144.472 437.835 144.608 440.623 144.608C448.715 144.608 453.203 140.664 456.875 133.048L473.943 97.28H464.287L452.387 124.48L439.671 97.28H429.607L447.627 132.3Z" fill="white"/>
<path d="M201.852 67C210.624 67 214.704 65.232 214.704 58.432V54.352C214.704 48.232 210.624 45.852 202.328 45.852H188.864C186.348 45.852 185.124 45.036 185.124 42.044C185.124 38.984 186.348 38.236 188.864 38.236H212.188L213.48 30.28H188.456C179.684 30.28 175.604 32.116 175.604 38.916V42.86C175.604 49.048 179.616 51.36 187.98 51.36H201.444C203.96 51.36 205.184 52.108 205.184 55.236C205.184 58.364 203.96 59.112 201.444 59.112H176.012C175.604 61.764 175.196 64.416 174.72 67H201.852ZM259.789 67L260.945 59.112H235.377C232.249 59.112 230.345 57.82 230.345 54.08V51.836H261.693V43.2C261.693 34.02 256.457 30.28 247.549 30.28H235.377C226.537 30.28 221.301 34.02 221.301 43.2V54.08C221.301 63.26 226.537 67 235.377 67H259.789ZM252.581 46.124H230.345V43.2C230.345 39.732 231.773 38.168 235.377 38.168H247.549C251.153 38.168 252.581 39.732 252.581 43.676V46.124ZM278.624 67V42.656C279.1 39.664 281.48 37.828 285.628 37.828C288.552 37.828 289.98 38.168 291.204 39.256L292.496 31.096C291.136 30.484 289.3 30.008 287.328 30.008C283.248 30.008 279.916 31.64 278.284 35.312V30.28H269.512V67H278.624ZM323.133 67L340.881 30.28H331.157L318.441 58.772L305.657 30.28H295.865L313.545 67H323.133ZM355.134 27.084V17.36H345.954V27.084H355.134ZM355.066 67V30.28H345.954V67H355.066ZM392.922 67C398.974 67 401.626 63.328 402.578 61.084L397.546 55.984C396.798 57.616 395.506 59.112 392.446 59.112H377.486C374.358 59.112 372.454 57.548 372.454 54.08V43.2C372.454 39.732 374.358 38.168 377.486 38.168H392.106C395.166 38.168 396.39 39.664 397.206 41.364L402.17 36.196C401.286 33.952 398.566 30.28 392.582 30.28H377.486C368.646 30.28 363.41 34.02 363.41 43.2V54.08C363.41 63.26 368.646 67 377.486 67H392.922ZM447.652 67L448.808 59.112H423.24C420.112 59.112 418.208 57.82 418.208 54.08V51.836H449.556V43.2C449.556 34.02 444.32 30.28 435.412 30.28H423.24C414.4 30.28 409.164 34.02 409.164 43.2V54.08C409.164 63.26 414.4 67 423.24 67H447.652ZM440.444 46.124H418.208V43.2C418.208 39.732 419.636 38.168 423.24 38.168H435.412C439.016 38.168 440.444 39.732 440.444 43.676V46.124ZM483.215 67C491.987 67 496.067 65.232 496.067 58.432V54.352C496.067 48.232 491.987 45.852 483.691 45.852H470.227C467.711 45.852 466.487 45.036 466.487 42.044C466.487 38.984 467.711 38.236 470.227 38.236H493.551L494.843 30.28H469.819C461.047 30.28 456.967 32.116 456.967 38.916V42.86C456.967 49.048 460.979 51.36 469.343 51.36H482.807C485.323 51.36 486.547 52.108 486.547 55.236C486.547 58.364 485.323 59.112 482.807 59.112H457.375C456.967 61.764 456.559 64.416 456.083 67H483.215Z" fill="white"/>
</svg>
