<svg width="187" height="43" viewBox="0 0 187 43" fill="none" xmlns="http://www.w3.org/2000/svg">
<path d="M69.1478 7.16721V12.5465C69.1478 12.8745 69.4101 13.1588 69.7599 13.1588H73.2135C73.6069 13.1588 73.8911 13.5305 73.8036 13.9241L72.8856 17.401C72.82 17.6634 72.5796 17.8384 72.2954 17.8384H69.7599C69.432 17.8384 69.1478 18.1008 69.1478 18.4506V35.4632C69.1478 35.7913 68.8855 36.0755 68.5358 36.0755H64.4483C64.1205 36.0755 63.8363 35.8131 63.8363 35.4632V7.16721C63.8363 6.8392 64.0986 6.55493 64.4483 6.55493H68.5358C68.8855 6.55493 69.1478 6.81734 69.1478 7.16721Z" fill="#00030A"/>
<path d="M56.6204 13.2464C56.0302 13.8149 55.7461 14.5147 55.7461 15.3238C55.7461 16.1766 56.0302 16.8763 56.6204 17.4449C57.2106 18.0353 57.9101 18.3196 58.7407 18.3196C59.5713 18.3196 60.2926 18.0134 60.8609 17.4449C61.4511 16.8545 61.7352 16.1547 61.7352 15.3238C61.7352 14.5147 61.4292 13.8149 60.8609 13.2464C60.2707 12.656 59.5713 12.3717 58.7407 12.3717C57.9101 12.3717 57.1887 12.6779 56.6204 13.2464Z" fill="#00030A"/>
<path d="M80.2106 26.4977C80.2106 28.1596 80.4947 29.4279 81.2597 30.2807C82.0029 31.1335 83.0958 31.549 84.4948 31.549C85.1942 31.549 85.9155 31.3522 86.6587 30.9367C87.4019 30.5431 88.0139 29.9746 88.4948 29.2311C88.9757 28.4439 89.2161 27.5255 89.2161 26.4759V14.8644C89.2161 14.5364 89.4784 14.2521 89.8281 14.2521H93.1506C93.4785 14.2521 93.7408 14.5145 93.7626 14.8425L93.85 26.4759C93.85 27.4817 93.697 28.4876 93.391 29.4498C93.3254 29.6466 93.3692 29.8871 93.5222 30.0402C94.3309 30.893 95.2708 31.3085 96.3637 31.3085C97.3692 31.3085 98.2872 31.0023 99.1179 30.3901C99.9485 29.7778 100.386 29.0562 100.386 28.1815V14.9081C100.386 14.5801 100.648 14.2959 100.998 14.2959H105.085C105.413 14.2959 105.697 14.5583 105.697 14.9081V28.4002C105.697 29.8871 105.304 31.1992 104.517 32.38C103.73 33.5608 102.681 34.4792 101.369 35.1352C100.058 35.7912 98.637 36.0974 97.1288 36.0974C95.9484 36.0974 94.8118 35.8568 93.7626 35.3976C92.8664 35.004 92.0795 34.4792 91.4019 33.8232C91.1615 33.6045 90.8118 33.5827 90.5713 33.8013C89.7626 34.4792 88.8882 35.0259 87.9265 35.4195C86.7899 35.9006 85.6751 36.1192 84.5385 36.1192C82.8117 36.1192 81.2816 35.7256 79.9483 34.9384C78.5931 34.1512 77.5439 33.036 76.8007 31.5928C76.0575 30.1933 75.6641 28.4876 75.6641 26.4977V14.8644C75.6641 14.5364 75.9264 14.2521 76.2761 14.2521H79.5985C79.9264 14.2521 80.2106 14.5145 80.2106 14.8644V26.4977Z" fill="#00030A"/>
<path d="M107.465 9.37595C107.465 8.56687 107.749 7.86712 108.339 7.29857C108.907 6.73003 109.629 6.42389 110.459 6.42389C111.29 6.42389 111.989 6.70816 112.58 7.29857C113.148 7.86712 113.454 8.56687 113.454 9.37595C113.454 10.2069 113.17 10.9066 112.58 11.4971C112.011 12.0656 111.29 12.3717 110.459 12.3717C109.629 12.3717 108.929 12.0875 108.339 11.4971C107.749 10.9285 107.465 10.2288 107.465 9.37595ZM107.902 35.5946V14.8646C107.902 14.5366 108.164 14.2523 108.514 14.2523H112.602C112.929 14.2523 113.214 14.5147 113.214 14.8646V35.5727C113.214 35.9008 112.951 36.185 112.602 36.185H108.514C108.164 36.185 107.902 35.9226 107.902 35.5946Z" fill="#00030A"/>
<path d="M129.455 20.1781C128.384 19.2816 127.072 18.8224 125.542 18.8224C123.99 18.8224 122.657 19.2816 121.586 20.1781C120.515 21.0747 119.968 22.3211 119.968 23.8737V35.507C119.968 35.835 119.706 36.1192 119.356 36.1192H116.034C115.706 36.1192 115.422 35.8568 115.422 35.507V23.8737C115.422 21.9931 115.881 20.3093 116.821 18.8442C117.739 17.3791 119.007 16.242 120.602 15.433C122.154 14.6457 123.794 14.2521 125.52 14.2521C127.291 14.2521 128.952 14.6457 130.482 15.433C132.012 16.2202 133.258 17.3354 134.242 18.7568C135.182 20.2656 135.663 21.9494 135.663 23.8518L135.575 35.4851C135.575 35.8131 135.313 36.0755 134.963 36.0755H131.641C131.313 36.0755 131.029 35.8131 131.029 35.4632V23.8737C131.072 22.3211 130.526 21.0965 129.455 20.1781Z" fill="#00030A"/>
<path d="M153.889 36.163H150.392C150.195 36.163 150.02 36.0755 149.911 35.9225L144.425 28.3783C144.163 28.0066 143.594 28.0503 143.397 28.4658L143.048 29.2093C143.004 29.2967 142.982 29.3842 142.982 29.4717V35.7913C142.982 35.9881 142.96 36.0974 142.938 36.163H138.698C138.37 36.163 138.086 35.9006 138.086 35.5507V7.16721C138.086 6.8392 138.348 6.55493 138.698 6.55493H142.37C142.698 6.55493 142.982 6.81734 142.982 7.16721V20.3093C142.982 20.8779 143.725 21.1403 144.075 20.6811L148.665 14.602C148.775 14.449 148.949 14.3615 149.146 14.3615H152.971C153.474 14.3615 153.758 14.93 153.452 15.3455L146.654 24.0924C146.479 24.311 146.479 24.5953 146.654 24.814L154.37 35.2008C154.654 35.5945 154.37 36.163 153.889 36.163Z" fill="#00030A"/>
<path d="M161.957 36.0754H157.87C157.542 36.0754 157.258 35.813 157.258 35.4632V6.88285C157.258 6.55484 157.52 6.27057 157.87 6.27057H161.957C162.285 6.27057 162.569 6.53297 162.569 6.88285V35.4632C162.547 35.7912 162.285 36.0754 161.957 36.0754Z" fill="#00030A"/>
<path d="M175.141 14.2305C176.671 14.2305 178.266 14.6022 179.906 15.3457C181.545 16.0892 182.944 17.3137 184.103 18.9975C185.37 20.8999 186.004 22.9773 186.004 25.1859C186.004 25.7763 185.961 26.3667 185.873 26.9134L185.786 26.8697V26.9134L170.004 27.3289C169.567 27.3507 169.261 27.8099 169.479 28.2036C169.764 28.7502 170.113 29.2313 170.551 29.6686C171.206 30.3247 171.949 30.8276 172.802 31.1337C173.501 31.3961 174.245 31.5274 175.053 31.5274C175.971 31.5274 176.846 31.3524 177.698 30.9807C178.419 30.6745 179.053 30.2591 179.578 29.7124C179.753 29.5374 179.993 29.4718 180.234 29.5593L183.556 30.8713C183.928 31.0244 184.059 31.4836 183.818 31.8116C182.879 33.0362 181.72 34.0202 180.321 34.7855C178.682 35.6821 176.933 36.1194 175.075 36.1194C173.523 36.1194 171.928 35.7477 170.288 35.0042C168.671 34.2607 167.272 33.0362 166.113 31.3087C164.824 29.4062 164.168 27.3289 164.168 25.1422C164.168 23.852 164.408 22.5618 164.889 21.2717C165.698 19.1724 167.031 17.4668 168.933 16.1766C170.813 14.8646 172.889 14.2305 175.141 14.2305ZM180.124 22.8898C180.562 22.8898 180.868 22.4088 180.649 22.0152C180.387 21.5341 180.037 21.0749 179.644 20.6813C179.01 20.0471 178.266 19.566 177.414 19.238C176.277 18.8007 174.988 18.7132 173.545 18.9975C173.501 18.9975 173.48 19.0194 173.436 19.0194C171.294 19.6972 169.851 21.0093 169.13 22.9117L169.042 23.1522L180.124 22.8898Z" fill="#00030A"/>
<circle cx="21.2365" cy="21.2365" r="21.2365" fill="#FF491B"/>
<path d="M25.3112 10.5776V13.7937C25.3112 14.1751 25.6161 14.5056 26.0227 14.5056H28.4767C28.9341 14.5056 29.2645 14.9378 29.1628 15.3954L28.0955 19.4377C28.0193 19.7428 27.7398 19.9461 27.4094 19.9461H26.0227C25.6416 19.9461 25.3112 20.2512 25.3112 20.658V33.4839C25.3112 33.8653 25.0063 34.1958 24.5997 34.1958H19.8477C19.4665 34.1958 19.1361 33.8907 19.1361 33.4839V10.5776C19.1361 10.1963 19.4411 9.86578 19.8477 9.86578H24.5997C25.0063 9.86578 25.3112 10.1709 25.3112 10.5776Z" fill="white"/>
<path d="M11.8876 14.6074C11.2014 15.2684 10.8711 16.082 10.8711 17.0226C10.8711 18.0141 11.2014 18.8277 11.8876 19.4887C12.5737 20.1751 13.3869 20.5056 14.3525 20.5056C15.3182 20.5056 16.1567 20.1497 16.8174 19.4887C17.5036 18.8022 17.8339 17.9887 17.8339 17.0226C17.8339 16.082 17.4781 15.2684 16.8174 14.6074C16.1313 13.921 15.3182 13.5905 14.3525 13.5905C13.3869 13.5905 12.5483 13.9464 11.8876 14.6074Z" fill="white"/>
</svg>
