<svg width="18" height="18" viewBox="0 0 18 18" fill="none" xmlns="http://www.w3.org/2000/svg">
<g clip-path="url(#clip0_1_668)">
<path d="M17.4727 0H15.3281C15.0366 0 14.8008 0.235863 14.8008 0.527344V1.05469H10.4849C10.2665 0.442195 9.6866 0 9 0C8.3134 0 7.73353 0.442195 7.51511 1.05469H3.19922V0.527344C3.19922 0.235863 2.96336 0 2.67188 0H0.527344C0.235863 0 0 0.235863 0 0.527344V2.63672C0 2.9282 0.235863 3.16406 0.527344 3.16406H2.67188C2.96336 3.16406 3.19922 2.9282 3.19922 2.63672V2.10234H5.36498C3.53486 3.24566 2.32812 5.25375 2.18387 7.50287C1.55113 7.70998 1.08984 8.29898 1.08984 9C1.08984 9.87237 1.79951 10.582 2.67188 10.582C3.54424 10.582 4.25391 9.87237 4.25391 9C4.25391 8.32711 3.82989 7.75501 3.23648 7.52671C3.41641 5.01919 5.16607 2.90573 7.59983 2.30273C7.86305 2.81169 8.38853 3.16406 9 3.16406C9.61147 3.16406 10.137 2.81169 10.4002 2.30273C12.8339 2.9057 14.5836 5.01915 14.7635 7.52667C14.1701 7.75501 13.7461 8.32711 13.7461 9C13.7461 9.87237 14.4558 10.582 15.3281 10.582C16.2005 10.582 16.9102 9.87237 16.9102 9C16.9102 8.29898 16.4489 7.70998 15.8161 7.50287C15.6719 5.25375 14.4651 3.25269 12.635 2.10938H14.8008V2.63672C14.8008 2.9282 15.0366 3.16406 15.3281 3.16406H17.4727C17.7641 3.16406 18 2.9282 18 2.63672V0.527344C18 0.235863 17.7641 0 17.4727 0Z" fill="black"/>
<path d="M12.5877 17.3459C12.3119 16.5019 11.5172 15.8555 10.582 15.8555H7.41798C6.48283 15.8555 5.68815 16.5019 5.41232 17.3459C5.30597 17.6714 5.58283 18 5.92525 18H12.0748C12.4172 18 12.6941 17.6714 12.5877 17.3459Z" fill="black"/>
<path d="M13.6575 10.8169L9.52735 4.62158V9.62446C10.1398 9.84288 10.582 10.4227 10.582 11.1094C10.582 11.9817 9.87237 12.6914 9 12.6914C8.12764 12.6914 7.41797 11.9817 7.41797 11.1094C7.41797 10.4227 7.86017 9.84288 8.47266 9.62446V4.62158L4.3425 10.8169C4.20293 11.0259 4.23074 11.3045 4.40842 11.4822C5.37652 12.4503 5.99534 13.6975 6.23416 15.0353C6.60049 14.8867 6.99891 14.8008 7.41797 14.8008H10.582C11.0011 14.8008 11.3995 14.8866 11.7659 15.0352C12.0047 13.6973 12.6235 12.4503 13.5916 11.4822C13.7693 11.3045 13.7971 11.0259 13.6575 10.8169Z" fill="black"/>
<path d="M9 10.582C8.70905 10.582 8.47266 10.8184 8.47266 11.1094C8.47266 11.4003 8.70905 11.6367 9 11.6367C9.29095 11.6367 9.52734 11.4003 9.52734 11.1094C9.52734 10.8184 9.29095 10.582 9 10.582Z" fill="black"/>
</g>
<defs>
<clipPath id="clip0_1_668">
<rect width="18" height="18" fill="white"/>
</clipPath>
</defs>
</svg>
