<svg width="18" height="18" viewBox="0 0 18 18" fill="none" xmlns="http://www.w3.org/2000/svg">
<g clip-path="url(#clip0_1_656)">
<path d="M16.6875 0H1.3125C0.58875 0 0 0.58875 0 1.3125V3.1875C0 3.91125 0.58875 4.5 1.3125 4.5H16.6875C17.4112 4.5 18 3.91125 18 3.1875V1.3125C18 0.58875 17.4112 0 16.6875 0Z" fill="black"/>
<path d="M1.3125 18H6.9375C7.66125 18 8.25 17.4113 8.25 16.6875V7.3125C8.25 6.58875 7.66125 6 6.9375 6H1.3125C0.58875 6 0 6.58875 0 7.3125V16.6875C0 17.4113 0.58875 18 1.3125 18Z" fill="black"/>
<path d="M16.6875 6H11.0625C10.3388 6 9.75 6.58875 9.75 7.3125V9.9375C9.75 10.6613 10.3388 11.25 11.0625 11.25H16.6875C17.4113 11.25 18 10.6613 18 9.9375V7.3125C18 6.58875 17.4113 6 16.6875 6Z" fill="black"/>
<path d="M16.6875 12.75H11.0625C10.3388 12.75 9.75 13.3388 9.75 14.0625V16.6875C9.75 17.4113 10.3388 18 11.0625 18H16.6875C17.4113 18 18 17.4113 18 16.6875V14.0625C18 13.3388 17.4113 12.75 16.6875 12.75Z" fill="black"/>
</g>
<defs>
<clipPath id="clip0_1_656">
<rect width="18" height="18" fill="white"/>
</clipPath>
</defs>
</svg>
