<svg width="137" height="188" viewBox="0 0 137 188" fill="none" xmlns="http://www.w3.org/2000/svg">
<rect y="2" width="137" height="186" rx="68.5" fill="#B1D7B4"/>
<circle cx="68.298" cy="65.2981" r="43.5" stroke="#282828" stroke-opacity="0.3" stroke-width="6"/>
<mask id="path-3-inside-1_1_466" fill="white">
<path d="M95.2019 99.4896C96.224 100.789 96.0046 102.679 94.6426 103.615C87.067 108.824 78.0957 111.683 68.8582 111.795C58.6206 111.918 48.6286 108.659 40.4323 102.524C32.236 96.3883 26.2937 87.7193 23.5275 77.8618C20.7612 68.0043 21.3256 57.5094 25.1331 48.0054C28.9405 38.5014 35.7782 30.5196 44.5852 25.2986C53.3922 20.0776 63.6762 17.9091 73.8414 19.1296C84.0067 20.3502 93.485 24.8915 100.806 32.049C107.411 38.5073 111.927 46.7698 113.811 55.7682C114.15 57.3859 113.003 58.9049 111.367 59.1389C109.731 59.3728 108.226 58.2326 107.872 56.6181C106.185 48.9242 102.284 41.8655 96.6214 36.3287C90.243 30.0925 81.9847 26.1358 73.1279 25.0723C64.2711 24.0089 55.3109 25.8982 47.6375 30.4473C39.9641 34.9963 34.0065 41.9506 30.6892 50.2312C27.3718 58.5119 26.88 67.6559 29.2902 76.2446C31.7004 84.8333 36.8778 92.3864 44.0191 97.7321C51.1604 103.078 59.8663 105.917 68.7861 105.81C76.7055 105.714 84.4003 103.301 90.9331 98.9C92.3039 97.9765 94.1798 98.1907 95.2019 99.4896Z"/>
</mask>
<path d="M95.2019 99.4896C96.224 100.789 96.0046 102.679 94.6426 103.615C87.067 108.824 78.0957 111.683 68.8582 111.795C58.6206 111.918 48.6286 108.659 40.4323 102.524C32.236 96.3883 26.2937 87.7193 23.5275 77.8618C20.7612 68.0043 21.3256 57.5094 25.1331 48.0054C28.9405 38.5014 35.7782 30.5196 44.5852 25.2986C53.3922 20.0776 63.6762 17.9091 73.8414 19.1296C84.0067 20.3502 93.485 24.8915 100.806 32.049C107.411 38.5073 111.927 46.7698 113.811 55.7682C114.15 57.3859 113.003 58.9049 111.367 59.1389C109.731 59.3728 108.226 58.2326 107.872 56.6181C106.185 48.9242 102.284 41.8655 96.6214 36.3287C90.243 30.0925 81.9847 26.1358 73.1279 25.0723C64.2711 24.0089 55.3109 25.8982 47.6375 30.4473C39.9641 34.9963 34.0065 41.9506 30.6892 50.2312C27.3718 58.5119 26.88 67.6559 29.2902 76.2446C31.7004 84.8333 36.8778 92.3864 44.0191 97.7321C51.1604 103.078 59.8663 105.917 68.7861 105.81C76.7055 105.714 84.4003 103.301 90.9331 98.9C92.3039 97.9765 94.1798 98.1907 95.2019 99.4896Z" stroke="#2A392C" stroke-width="8" mask="url(#path-3-inside-1_1_466)"/>
<path d="M50.3652 68.2109C48.4755 68.2109 46.9199 67.6836 45.6982 66.6289C44.4853 65.5742 43.8788 64.2295 43.8788 62.5947C43.8788 61.5488 44.1909 60.5908 44.8149 59.7207C45.4389 58.8418 46.2607 58.209 47.2802 57.8223C46.4892 57.4707 45.8476 56.9302 45.3554 56.2007C44.8632 55.4712 44.6171 54.6978 44.6171 53.8804C44.6171 52.4214 45.1533 51.2305 46.2255 50.3076C47.2978 49.376 48.6777 48.9102 50.3652 48.9102C52.0263 48.9102 53.393 49.376 54.4653 50.3076C55.5463 51.2393 56.0869 52.4302 56.0869 53.8804C56.0869 54.7065 55.8364 55.4888 55.3354 56.2271C54.8432 56.9565 54.2016 57.4883 53.4106 57.8223C54.4301 58.2002 55.2519 58.8242 55.8759 59.6943C56.4999 60.5557 56.812 61.5225 56.812 62.5947C56.812 64.2295 56.2055 65.5742 54.9926 66.6289C53.7885 67.6836 52.246 68.2109 50.3652 68.2109ZM48.4272 55.6865C48.937 56.1172 49.5829 56.3325 50.3652 56.3325C51.1474 56.3325 51.789 56.1172 52.29 55.6865C52.791 55.2471 53.0414 54.6978 53.0414 54.0386C53.0414 53.3618 52.791 52.8081 52.29 52.3774C51.789 51.938 51.1474 51.7183 50.3652 51.7183C49.5829 51.7183 48.937 51.938 48.4272 52.3774C47.9174 52.8081 47.6625 53.3618 47.6625 54.0386C47.6625 54.6978 47.9174 55.2471 48.4272 55.6865ZM50.3652 65.2974C51.3232 65.2974 52.1142 65.0249 52.7382 64.48C53.371 63.9263 53.6874 63.2363 53.6874 62.4102C53.6874 61.5752 53.371 60.8853 52.7382 60.3403C52.1142 59.7954 51.3232 59.5229 50.3652 59.5229C49.3984 59.5229 48.5986 59.7954 47.9658 60.3403C47.3329 60.8853 47.0165 61.5752 47.0165 62.4102C47.0165 63.2363 47.3329 63.9263 47.9658 64.48C48.5986 65.0249 49.3984 65.2974 50.3652 65.2974ZM65.2104 68.2637C63.7339 68.2637 62.4551 67.8638 61.374 67.064C60.3017 66.2642 59.4844 65.1348 58.9219 63.6758C58.3681 62.2168 58.0913 60.5073 58.0913 58.5474C58.0913 56.5874 58.3681 54.8779 58.9219 53.4189C59.4844 51.96 60.3017 50.8306 61.374 50.0308C62.4551 49.231 63.7339 48.8311 65.2104 48.8311C67.4429 48.8311 69.1919 49.71 70.4575 51.4678C71.7319 53.2168 72.3691 55.5767 72.3691 58.5474C72.3691 61.5181 71.7319 63.8823 70.4575 65.6401C69.1919 67.3892 67.4429 68.2637 65.2104 68.2637ZM65.2104 65.1919C66.4585 65.1919 67.4209 64.6294 68.0976 63.5044C68.7832 62.3794 69.126 60.7271 69.126 58.5474C69.126 56.3677 68.7832 54.7153 68.0976 53.5903C67.4209 52.4653 66.4585 51.9028 65.2104 51.9028C63.98 51.9028 63.0263 52.4653 62.3496 53.5903C61.6728 54.7153 61.3345 56.3677 61.3345 58.5474C61.3345 60.7271 61.6728 62.3794 62.3496 63.5044C63.0263 64.6294 63.98 65.1919 65.2104 65.1919ZM81.3477 52.8257C81.3477 53.9858 80.9785 54.9526 80.2403 55.7261C79.5108 56.4907 78.5923 56.873 77.4849 56.873C76.3687 56.873 75.4458 56.4907 74.7163 55.7261C73.9868 54.9526 73.6221 53.9858 73.6221 52.8257C73.6221 51.6743 73.9868 50.7207 74.7163 49.9648C75.4458 49.209 76.3687 48.8311 77.4849 48.8311C78.5923 48.8311 79.5108 49.2134 80.2403 49.978C80.9785 50.7339 81.3477 51.6831 81.3477 52.8257ZM86.9903 49.0947H89.416L76.8653 68H74.4263L86.9903 49.0947ZM79.3174 52.8257C79.3174 52.2104 79.1504 51.7051 78.8164 51.3096C78.4824 50.9141 78.0386 50.7163 77.4849 50.7163C76.9136 50.7163 76.4566 50.9141 76.1138 51.3096C75.7798 51.7051 75.6128 52.2104 75.6128 52.8257C75.6128 53.4585 75.7798 53.9727 76.1138 54.3682C76.4566 54.7637 76.9136 54.9614 77.4849 54.9614C78.0474 54.9614 78.4912 54.7637 78.8164 54.3682C79.1504 53.9727 79.3174 53.4585 79.3174 52.8257ZM90.2202 64.2163C90.2202 65.3853 89.8511 66.3521 89.1128 67.1167C88.3833 67.8813 87.4561 68.2637 86.3311 68.2637C85.2237 68.2637 84.3052 67.8813 83.5757 67.1167C82.8462 66.3521 82.4815 65.3853 82.4815 64.2163C82.4815 63.0649 82.8462 62.1113 83.5757 61.3555C84.3052 60.5996 85.2237 60.2217 86.3311 60.2217C87.4473 60.2217 88.3745 60.5996 89.1128 61.3555C89.8511 62.1113 90.2202 63.0649 90.2202 64.2163ZM88.2031 64.2163C88.2031 63.6011 88.0318 63.1045 87.689 62.7266C87.3462 62.3398 86.8936 62.1465 86.3311 62.1465C85.7686 62.1465 85.3159 62.3398 84.9732 62.7266C84.6392 63.1045 84.4722 63.6011 84.4722 64.2163C84.4722 64.8403 84.6392 65.3545 84.9732 65.7588C85.3159 66.1543 85.7686 66.3521 86.3311 66.3521C86.8936 66.3521 87.3462 66.1543 87.689 65.7588C88.0318 65.3545 88.2031 64.8403 88.2031 64.2163ZM48.5997 80.8496C48.3809 81.5215 47.9356 82.0684 47.2638 82.4902C46.5919 82.9082 45.8263 83.1172 44.9669 83.1172C44.3692 83.1172 43.8087 83.0059 43.2852 82.7832C42.7618 82.5605 42.3145 82.2578 41.9434 81.875C41.5723 81.4883 41.2794 81.0293 41.0645 80.498C40.8497 79.9629 40.7423 79.3926 40.7423 78.7871C40.7423 78.1855 40.8497 77.6191 41.0645 77.0879C41.2794 76.5566 41.5723 76.0996 41.9434 75.7168C42.3145 75.334 42.7618 75.0332 43.2852 74.8145C43.8087 74.5918 44.3692 74.4805 44.9669 74.4805C45.795 74.4805 46.5352 74.6738 47.1876 75.0605C47.8438 75.4473 48.2872 75.9492 48.5177 76.5664L47.2579 77.1816C47.0782 76.7754 46.7813 76.4512 46.3673 76.209C45.9571 75.9668 45.4903 75.8457 44.9669 75.8457C44.1544 75.8457 43.4884 76.123 42.9688 76.6777C42.4532 77.2324 42.1954 77.9355 42.1954 78.7871C42.1954 79.6387 42.4532 80.3457 42.9688 80.9082C43.4884 81.4707 44.1544 81.752 44.9669 81.752C45.5294 81.752 46.0235 81.6191 46.4493 81.3535C46.8751 81.0879 47.168 80.7285 47.3282 80.2754L48.5997 80.8496ZM49.7017 77.8906C50.2838 77.3047 51.0045 77.0117 51.8638 77.0117C52.7232 77.0117 53.4459 77.3047 54.0318 77.8906C54.6177 78.4766 54.9107 79.2031 54.9107 80.0703C54.9107 80.9375 54.6177 81.6621 54.0318 82.2441C53.4459 82.8262 52.7232 83.1172 51.8638 83.1172C51.0045 83.1172 50.2838 82.8262 49.7017 82.2441C49.1197 81.6621 48.8287 80.9375 48.8287 80.0703C48.8287 79.2031 49.1197 78.4766 49.7017 77.8906ZM53.0943 78.8047C52.7623 78.4648 52.3521 78.2949 51.8638 78.2949C51.3755 78.2949 50.9673 78.4648 50.6392 78.8047C50.3111 79.1445 50.147 79.5664 50.147 80.0703C50.147 80.5703 50.3111 80.9902 50.6392 81.3301C50.9713 81.666 51.3795 81.834 51.8638 81.834C52.3521 81.834 52.7623 81.6641 53.0943 81.3242C53.4263 80.9844 53.5923 80.5664 53.5923 80.0703C53.5923 79.5664 53.4263 79.1445 53.0943 78.8047ZM62.3526 77.0117C63.0674 77.0117 63.6455 77.2324 64.087 77.6738C64.5323 78.1113 64.7549 78.6914 64.7549 79.4141V83H63.3955V79.666C63.3955 79.2285 63.2803 78.8828 63.0498 78.6289C62.8194 78.375 62.5069 78.248 62.1123 78.248C61.8545 78.248 61.6026 78.3242 61.3565 78.4766C61.1104 78.6289 60.919 78.8203 60.7823 79.0508L60.8174 79.2559V83H59.4756V79.666C59.4756 79.2324 59.3584 78.8887 59.1241 78.6348C58.8897 78.377 58.585 78.248 58.21 78.248C57.9209 78.248 57.6573 78.3242 57.419 78.4766C57.1846 78.625 57.0049 78.8203 56.8799 79.0625V83H55.5498V77.1348H56.8799V77.9023C57.0557 77.6602 57.294 77.4512 57.5948 77.2754C57.8955 77.0996 58.253 77.0117 58.667 77.0117C59.4834 77.0117 60.0713 77.3281 60.4307 77.9609C60.6573 77.6914 60.9366 77.4668 61.2686 77.2871C61.6006 77.1035 61.962 77.0117 62.3526 77.0117ZM68.8804 77.0117C69.6695 77.0117 70.3355 77.3066 70.8784 77.8965C71.4253 78.4863 71.6987 79.2109 71.6987 80.0703C71.6987 80.9219 71.4253 81.6426 70.8784 82.2324C70.3355 82.8223 69.6695 83.1172 68.8804 83.1172C68.4898 83.1172 68.1187 83.0332 67.7671 82.8652C67.4155 82.6934 67.1616 82.4746 67.0054 82.209V85.0625H65.6753V77.1348H67.0054V77.9141C67.1616 77.6562 67.4155 77.4414 67.7671 77.2695C68.1226 77.0977 68.4937 77.0117 68.8804 77.0117ZM68.605 81.8457C69.1089 81.8457 69.5308 81.6777 69.8706 81.3418C70.2105 81.002 70.3804 80.5781 70.3804 80.0703C70.3804 79.5547 70.2105 79.1289 69.8706 78.793C69.5308 78.4531 69.1089 78.2832 68.605 78.2832C68.2769 78.2832 67.9644 78.3672 67.6675 78.5352C67.3706 78.6992 67.1499 78.9082 67.0054 79.1621V80.9609C67.1499 81.2227 67.3687 81.4355 67.6616 81.5996C67.9585 81.7637 68.273 81.8457 68.605 81.8457ZM73.6621 74.5977V83H72.332V74.5977H73.6621ZM80.0317 79.8066C80.0317 80.0332 80.0161 80.2266 79.9848 80.3867H75.52C75.5942 80.8633 75.7837 81.2363 76.0884 81.5059C76.3969 81.7754 76.7876 81.9102 77.2602 81.9102C77.5923 81.9102 77.8969 81.8438 78.1743 81.7109C78.4516 81.5742 78.6587 81.3926 78.7954 81.166L79.8618 81.8457C79.643 82.2441 79.3012 82.5566 78.8364 82.7832C78.3755 83.0059 77.8423 83.1172 77.2368 83.1172C76.6782 83.1172 76.1665 82.9844 75.7016 82.7188C75.2368 82.4492 74.8677 82.0781 74.5942 81.6055C74.3247 81.1328 74.1899 80.6094 74.1899 80.0352C74.1899 79.4766 74.3227 78.9668 74.5884 78.5059C74.8579 78.041 75.2231 77.6758 75.6841 77.4102C76.1489 77.1445 76.6587 77.0117 77.2134 77.0117C77.7329 77.0117 78.2075 77.1348 78.6372 77.3809C79.0708 77.627 79.4106 77.9648 79.6567 78.3945C79.9067 78.8203 80.0317 79.291 80.0317 79.8066ZM75.5669 79.3613H78.6255C78.5903 78.9941 78.4341 78.6953 78.1567 78.4648C77.8794 78.2305 77.5395 78.1133 77.1372 78.1133C76.7427 78.1133 76.4087 78.2246 76.1352 78.4473C75.8618 78.666 75.6723 78.9707 75.5669 79.3613ZM83.8935 81.7637L83.9697 82.9414C83.7783 83.0352 83.538 83.082 83.249 83.082C82.5888 83.082 82.0556 82.8809 81.6494 82.4785C81.2431 82.0723 81.04 81.5137 81.04 80.8027V78.4062H79.915V77.1348H81.04V75.5586H82.3701V77.1348H83.9111V78.4062H82.3701V80.7441C82.3701 81.0762 82.4716 81.3418 82.6748 81.541C82.8818 81.7363 83.1377 81.834 83.4423 81.834C83.5869 81.834 83.7373 81.8105 83.8935 81.7637ZM89.7827 79.8066C89.7827 80.0332 89.767 80.2266 89.7358 80.3867H85.2709C85.3452 80.8633 85.5346 81.2363 85.8393 81.5059C86.1479 81.7754 86.5385 81.9102 87.0112 81.9102C87.3432 81.9102 87.6479 81.8438 87.9252 81.7109C88.2026 81.5742 88.4096 81.3926 88.5463 81.166L89.6127 81.8457C89.394 82.2441 89.0522 82.5566 88.5873 82.7832C88.1264 83.0059 87.5932 83.1172 86.9877 83.1172C86.4291 83.1172 85.9174 82.9844 85.4526 82.7188C84.9877 82.4492 84.6186 82.0781 84.3452 81.6055C84.0756 81.1328 83.9409 80.6094 83.9409 80.0352C83.9409 79.4766 84.0737 78.9668 84.3393 78.5059C84.6088 78.041 84.9741 77.6758 85.435 77.4102C85.8998 77.1445 86.4096 77.0117 86.9643 77.0117C87.4838 77.0117 87.9584 77.1348 88.3881 77.3809C88.8217 77.627 89.1616 77.9648 89.4077 78.3945C89.6577 78.8203 89.7827 79.291 89.7827 79.8066ZM85.3178 79.3613H88.3764C88.3412 78.9941 88.185 78.6953 87.9077 78.4648C87.6303 78.2305 87.2905 78.1133 86.8881 78.1133C86.4936 78.1133 86.1596 78.2246 85.8862 78.4473C85.6127 78.666 85.4233 78.9707 85.3178 79.3613ZM94.6991 74.5977H96.0351V83H94.6991V82.209C94.5429 82.4746 94.289 82.6934 93.9374 82.8652C93.5898 83.0332 93.2206 83.1172 92.83 83.1172C92.0409 83.1172 91.373 82.8223 90.8261 82.2324C90.2831 81.6426 90.0116 80.918 90.0116 80.0586C90.0116 79.207 90.2831 78.4863 90.8261 77.8965C91.373 77.3066 92.0409 77.0117 92.83 77.0117C93.2167 77.0117 93.5859 77.0977 93.9374 77.2695C94.289 77.4414 94.5429 77.6602 94.6991 77.9258V74.5977ZM93.1054 81.8457C93.4335 81.8457 93.7441 81.7637 94.037 81.5996C94.3339 81.4355 94.5546 81.2266 94.6991 80.9727V79.1738C94.5546 78.9121 94.3359 78.6992 94.0429 78.5352C93.7499 78.3672 93.4374 78.2832 93.1054 78.2832C92.6015 78.2832 92.1796 78.4531 91.8398 78.793C91.4999 79.1289 91.33 79.5508 91.33 80.0586C91.33 80.5664 91.4999 80.9922 91.8398 81.3359C92.1796 81.6758 92.6015 81.8457 93.1054 81.8457Z" fill="#2A392C"/>
<path d="M29.8264 127.396H32.3752L35.5656 132.406L38.6945 127.396H41.1643L36.5939 134.524V140H34.4846V134.524L29.8264 127.396ZM40.4879 132.336C41.3609 131.457 42.442 131.018 43.731 131.018C45.0201 131.018 46.1041 131.457 46.983 132.336C47.8619 133.215 48.3013 134.305 48.3013 135.605C48.3013 136.906 47.8619 137.993 46.983 138.866C46.1041 139.739 45.0201 140.176 43.731 140.176C42.442 140.176 41.3609 139.739 40.4879 138.866C39.6148 137.993 39.1783 136.906 39.1783 135.605C39.1783 134.305 39.6148 133.215 40.4879 132.336ZM45.5767 133.707C45.0787 133.197 44.4634 132.942 43.731 132.942C42.9986 132.942 42.3863 133.197 41.8941 133.707C41.4019 134.217 41.1558 134.85 41.1558 135.605C41.1558 136.355 41.4019 136.985 41.8941 137.495C42.3921 137.999 43.0045 138.251 43.731 138.251C44.4634 138.251 45.0787 137.996 45.5767 137.486C46.0748 136.977 46.3238 136.35 46.3238 135.605C46.3238 134.85 46.0748 134.217 45.5767 133.707ZM55.9042 131.202H57.9169V140H55.9042V138.813C55.6464 139.229 55.2714 139.561 54.7792 139.807C54.2929 140.053 53.7714 140.176 53.2148 140.176C52.1073 140.176 51.2314 139.821 50.5868 139.112C49.9423 138.397 49.62 137.428 49.62 136.203V131.202H51.6152V135.896C51.6152 136.599 51.8056 137.155 52.1864 137.565C52.5673 137.976 53.0741 138.181 53.707 138.181C54.1464 138.181 54.5654 138.069 54.9638 137.847C55.3681 137.618 55.6816 137.316 55.9042 136.941V131.202ZM63.9114 131.018C64.3157 131.018 64.6526 131.064 64.9221 131.158L64.7991 133.048C64.4593 132.931 64.1106 132.872 63.7532 132.872C63.3899 132.872 63.0061 133.01 62.6018 133.285C62.1975 133.555 61.8841 133.921 61.6614 134.384V140H59.6663V131.202H61.6614V132.406C61.8782 131.996 62.2034 131.662 62.637 131.404C63.0706 131.146 63.4954 131.018 63.9114 131.018ZM73.8262 127.396C74.7109 127.396 75.543 127.555 76.3223 127.871C77.1016 128.188 77.7695 128.621 78.3262 129.172C78.8828 129.717 79.3223 130.379 79.6445 131.158C79.9668 131.932 80.1279 132.761 80.1279 133.646C80.1279 134.542 79.9668 135.386 79.6445 136.177C79.3223 136.962 78.8828 137.636 78.3262 138.198C77.7695 138.755 77.1016 139.194 76.3223 139.517C75.543 139.839 74.7109 140 73.8262 140H69.6865V127.396H73.8262ZM73.9668 137.987C75.1094 137.987 76.0615 137.574 76.8232 136.748C77.585 135.922 77.9658 134.888 77.9658 133.646C77.9658 132.415 77.5879 131.404 76.832 130.613C76.0762 129.816 75.1211 129.418 73.9668 129.418H71.7959V137.987H73.9668ZM87.9681 131.202H89.972V140H87.9681V138.813C87.7337 139.212 87.3529 139.54 86.8255 139.798C86.3041 140.05 85.7504 140.176 85.1644 140.176C83.9808 140.176 82.9789 139.733 82.1586 138.849C81.3441 137.964 80.9369 136.877 80.9369 135.588C80.9369 134.311 81.3441 133.229 82.1586 132.345C82.9789 131.46 83.9808 131.018 85.1644 131.018C85.7445 131.018 86.2982 131.146 86.8255 131.404C87.3529 131.662 87.7337 131.99 87.9681 132.389V131.202ZM85.5775 138.269C86.0697 138.269 86.5355 138.146 86.975 137.899C87.4203 137.653 87.7513 137.34 87.9681 136.959V134.261C87.7513 133.868 87.4232 133.549 86.9837 133.303C86.5443 133.051 86.0755 132.925 85.5775 132.925C84.8216 132.925 84.1888 133.18 83.6791 133.689C83.1693 134.193 82.9144 134.826 82.9144 135.588C82.9144 136.35 83.1693 136.988 83.6791 137.504C84.1888 138.014 84.8216 138.269 85.5775 138.269ZM91.8357 127.493C92.0876 127.241 92.3894 127.115 92.7409 127.115C93.0925 127.115 93.3943 127.241 93.6462 127.493C93.904 127.745 94.0329 128.044 94.0329 128.39C94.0329 128.747 93.904 129.052 93.6462 129.304C93.3943 129.556 93.0925 129.682 92.7409 129.682C92.3894 129.682 92.0876 129.556 91.8357 129.304C91.5837 129.052 91.4577 128.747 91.4577 128.39C91.4577 128.044 91.5837 127.745 91.8357 127.493ZM91.7302 131.202H93.7253V140H91.7302V131.202ZM97.5841 127.396V140H95.5889V127.396H97.5841ZM105.372 131.202H107.534L102.559 143.094H100.406L101.988 139.534L98.4985 131.202H100.652L103.016 137.196L105.372 131.202ZM40.844 145.396C42.0041 145.396 42.9651 145.763 43.7268 146.495C44.4944 147.228 44.8782 148.147 44.8782 149.255C44.8782 150.38 44.4944 151.309 43.7268 152.041C42.9651 152.773 42.0041 153.14 40.844 153.14H38.1282V158H36.0188V145.396H40.844ZM40.844 151.127C41.3889 151.127 41.843 150.948 42.2063 150.591C42.5696 150.233 42.7512 149.788 42.7512 149.255C42.7512 148.733 42.5696 148.297 42.2063 147.945C41.843 147.594 41.3889 147.418 40.844 147.418H38.1282V151.127H40.844ZM50.2223 149.018C50.6266 149.018 50.9635 149.064 51.233 149.158L51.11 151.048C50.7701 150.931 50.4215 150.872 50.0641 150.872C49.7008 150.872 49.317 151.01 48.9127 151.285C48.5084 151.555 48.1949 151.921 47.9723 152.384V158H45.9771V149.202H47.9723V150.406C48.1891 149.996 48.5143 149.662 48.9478 149.404C49.3814 149.146 49.8062 149.018 50.2223 149.018ZM52.4902 150.336C53.3632 149.457 54.4443 149.018 55.7334 149.018C57.0224 149.018 58.1064 149.457 58.9853 150.336C59.8642 151.215 60.3037 152.305 60.3037 153.605C60.3037 154.906 59.8642 155.993 58.9853 156.866C58.1064 157.739 57.0224 158.176 55.7334 158.176C54.4443 158.176 53.3632 157.739 52.4902 156.866C51.6171 155.993 51.1806 154.906 51.1806 153.605C51.1806 152.305 51.6171 151.215 52.4902 150.336ZM57.5791 151.707C57.081 151.197 56.4658 150.942 55.7334 150.942C55.0009 150.942 54.3886 151.197 53.8964 151.707C53.4043 152.217 53.1582 152.85 53.1582 153.605C53.1582 154.355 53.4043 154.985 53.8964 155.495C54.3945 155.999 55.0068 156.251 55.7334 156.251C56.4658 156.251 57.081 155.996 57.5791 155.486C58.0771 154.977 58.3261 154.35 58.3261 153.605C58.3261 152.85 58.0771 152.217 57.5791 151.707ZM68.0472 149.176H70.0511V157.675C70.0511 158.87 69.6409 159.834 68.8206 160.566C68.0062 161.305 66.9632 161.674 65.6917 161.674C64.9124 161.674 64.1507 161.539 63.4066 161.27C62.6624 161.006 62.0911 160.654 61.6927 160.215L62.7034 158.826C63.0491 159.166 63.4769 159.424 63.9866 159.6C64.5023 159.781 65.0472 159.872 65.6214 159.872C66.307 159.872 66.8812 159.661 67.3441 159.239C67.8128 158.823 68.0472 158.29 68.0472 157.64V156.646C67.8128 157.027 67.432 157.347 66.9046 157.604C66.3773 157.856 65.8236 157.982 65.2435 157.982C64.0599 157.982 63.0579 157.549 62.2376 156.682C61.4232 155.809 61.0159 154.742 61.0159 153.482C61.0159 152.229 61.4232 151.171 62.2376 150.31C63.0579 149.448 64.0599 149.018 65.2435 149.018C65.8294 149.018 66.3831 149.144 66.9046 149.396C67.432 149.647 67.8128 149.967 68.0472 150.354V149.176ZM65.6566 156.11C66.1488 156.11 66.6146 155.993 67.054 155.759C67.4993 155.519 67.8304 155.211 68.0472 154.836V152.164C67.8304 151.783 67.5023 151.473 67.0628 151.232C66.6234 150.992 66.1546 150.872 65.6566 150.872C64.9007 150.872 64.2679 151.121 63.7581 151.619C63.2484 152.117 62.9935 152.738 62.9935 153.482C62.9935 154.238 63.2484 154.865 63.7581 155.363C64.2679 155.861 64.9007 156.11 65.6566 156.11ZM76.0544 149.018C76.4587 149.018 76.7956 149.064 77.0651 149.158L76.9421 151.048C76.6022 150.931 76.2536 150.872 75.8962 150.872C75.5329 150.872 75.1491 151.01 74.7448 151.285C74.3405 151.555 74.027 151.921 73.8044 152.384V158H71.8093V149.202H73.8044V150.406C74.0212 149.996 74.3464 149.662 74.78 149.404C75.2136 149.146 75.6384 149.018 76.0544 149.018ZM85.7754 153.21C85.7754 153.55 85.752 153.84 85.7051 154.08H79.0079C79.1192 154.795 79.4034 155.354 79.8604 155.759C80.3233 156.163 80.9092 156.365 81.6182 156.365C82.1162 156.365 82.5733 156.266 82.9893 156.066C83.4053 155.861 83.7159 155.589 83.9209 155.249L85.5205 156.269C85.1924 156.866 84.6797 157.335 83.9825 157.675C83.2911 158.009 82.4912 158.176 81.583 158.176C80.7452 158.176 79.9776 157.977 79.2803 157.578C78.583 157.174 78.0293 156.617 77.6192 155.908C77.2149 155.199 77.0127 154.414 77.0127 153.553C77.0127 152.715 77.212 151.95 77.6104 151.259C78.0147 150.562 78.5625 150.014 79.2539 149.615C79.9512 149.217 80.7159 149.018 81.5479 149.018C82.3272 149.018 83.0391 149.202 83.6836 149.571C84.334 149.94 84.8438 150.447 85.2129 151.092C85.5879 151.73 85.7754 152.437 85.7754 153.21ZM79.0782 152.542H83.6661C83.6133 151.991 83.3789 151.543 82.9629 151.197C82.5469 150.846 82.0371 150.67 81.4336 150.67C80.8418 150.67 80.3409 150.837 79.9307 151.171C79.5205 151.499 79.2364 151.956 79.0782 152.542ZM90.2582 158.202C89.5434 158.202 88.8344 158.085 88.1312 157.851C87.4281 157.616 86.8627 157.306 86.435 156.919L87.226 155.407C87.56 155.729 88.0111 155.993 88.5795 156.198C89.1537 156.403 89.6928 156.506 90.1967 156.506C90.6303 156.506 90.9818 156.415 91.2514 156.233C91.5209 156.046 91.6557 155.812 91.6557 155.53C91.6557 155.337 91.5854 155.173 91.4447 155.038C91.3041 154.903 91.1195 154.801 90.891 154.73C90.6625 154.654 90.4018 154.578 90.1088 154.502C89.8158 154.42 89.5141 154.347 89.2035 154.282C88.8988 154.212 88.6 154.112 88.307 153.983C88.0141 153.849 87.7533 153.696 87.5248 153.526C87.2963 153.351 87.1117 153.113 86.9711 152.814C86.8305 152.516 86.7602 152.173 86.7602 151.786C86.7602 150.972 87.0766 150.307 87.7094 149.791C88.348 149.275 89.1713 149.018 90.1791 149.018C90.8178 149.018 91.4301 149.108 92.016 149.29C92.6078 149.472 93.0941 149.735 93.475 150.081L92.684 151.628C92.3559 151.341 91.9252 151.115 91.392 150.951C90.8646 150.781 90.3959 150.696 89.9857 150.696C89.6166 150.696 89.3207 150.781 89.098 150.951C88.8754 151.115 88.7641 151.341 88.7641 151.628C88.7641 151.827 88.8549 151.997 89.0365 152.138C89.2182 152.272 89.4525 152.384 89.7396 152.472C90.0326 152.56 90.3549 152.647 90.7064 152.735C91.058 152.817 91.4066 152.926 91.7523 153.061C92.1039 153.189 92.4232 153.348 92.7104 153.535C93.0033 153.717 93.2406 153.975 93.4223 154.309C93.6039 154.637 93.6947 155.021 93.6947 155.46C93.6947 156.251 93.3725 156.907 92.7279 157.429C92.0834 157.944 91.2602 158.202 90.2582 158.202ZM98.1248 158.202C97.4099 158.202 96.7009 158.085 95.9978 157.851C95.2947 157.616 94.7293 157.306 94.3015 156.919L95.0925 155.407C95.4265 155.729 95.8777 155.993 96.4461 156.198C97.0203 156.403 97.5593 156.506 98.0632 156.506C98.4968 156.506 98.8484 156.415 99.1179 156.233C99.3875 156.046 99.5222 155.812 99.5222 155.53C99.5222 155.337 99.4519 155.173 99.3113 155.038C99.1707 154.903 98.9861 154.801 98.7576 154.73C98.5291 154.654 98.2683 154.578 97.9753 154.502C97.6824 154.42 97.3806 154.347 97.0701 154.282C96.7654 154.212 96.4666 154.112 96.1736 153.983C95.8806 153.849 95.6199 153.696 95.3914 153.526C95.1628 153.351 94.9783 153.113 94.8377 152.814C94.697 152.516 94.6267 152.173 94.6267 151.786C94.6267 150.972 94.9431 150.307 95.5759 149.791C96.2146 149.275 97.0378 149.018 98.0457 149.018C98.6843 149.018 99.2966 149.108 99.8826 149.29C100.474 149.472 100.961 149.735 101.342 150.081L100.551 151.628C100.222 151.341 99.7918 151.115 99.2586 150.951C98.7312 150.781 98.2625 150.696 97.8523 150.696C97.4832 150.696 97.1873 150.781 96.9646 150.951C96.742 151.115 96.6306 151.341 96.6306 151.628C96.6306 151.827 96.7214 151.997 96.9031 152.138C97.0847 152.272 97.3191 152.384 97.6062 152.472C97.8992 152.56 98.2214 152.647 98.573 152.735C98.9246 152.817 99.2732 152.926 99.6189 153.061C99.9705 153.189 100.29 153.348 100.577 153.535C100.87 153.717 101.107 153.975 101.289 154.309C101.47 154.637 101.561 155.021 101.561 155.46C101.561 156.251 101.239 156.907 100.594 157.429C99.95 157.944 99.1267 158.202 98.1248 158.202Z" fill="#2A392C"/>
</svg>
