<svg width="18" height="18" viewBox="0 0 18 18" fill="none" xmlns="http://www.w3.org/2000/svg">
<g clip-path="url(#clip0_1_644)">
<path d="M6 0H2C0.895431 0 0 0.895431 0 2V6C0 7.10457 0.895431 8 2 8H6C7.10457 8 8 7.10457 8 6V2C8 0.895431 7.10457 0 6 0Z" fill="black"/>
<path d="M16 0H12C10.8954 0 10 0.895431 10 2V6C10 7.10457 10.8954 8 12 8H16C17.1046 8 18 7.10457 18 6V2C18 0.895431 17.1046 0 16 0Z" fill="black"/>
<path d="M6 10H2C0.895431 10 0 10.8954 0 12V16C0 17.1046 0.895431 18 2 18H6C7.10457 18 8 17.1046 8 16V12C8 10.8954 7.10457 10 6 10Z" fill="black"/>
<path d="M14 18C16.2091 18 18 16.2091 18 14C18 11.7909 16.2091 10 14 10C11.7909 10 10 11.7909 10 14C10 16.2091 11.7909 18 14 18Z" fill="black"/>
</g>
<defs>
<clipPath id="clip0_1_644">
<rect width="18" height="18" fill="white"/>
</clipPath>
</defs>
</svg>
