<svg width="30" height="30" viewBox="0 0 30 30" fill="none" xmlns="http://www.w3.org/2000/svg">
<path fill-rule="evenodd" clip-rule="evenodd" d="M15.2767 7C15.848 7 16.3112 7.46315 16.3112 8.03448V22.5172C16.3112 23.0886 15.848 23.5517 15.2767 23.5517C14.7053 23.5517 14.2422 23.0886 14.2422 22.5172V8.03448C14.2422 7.46315 14.7053 7 15.2767 7Z" fill="black"/>
<path fill-rule="evenodd" clip-rule="evenodd" d="M7.30299 14.5442C7.70698 14.1402 8.36198 14.1402 8.76597 14.5442L15.2759 21.0541L21.7858 14.5442C22.1897 14.1402 22.8447 14.1402 23.2487 14.5442C23.6527 14.9482 23.6527 15.6032 23.2487 16.0072L16.0074 23.2486C15.6034 23.6526 14.9484 23.6526 14.5444 23.2486L7.30299 16.0072C6.899 15.6032 6.899 14.9482 7.30299 14.5442Z" fill="black"/>
</svg>
