<svg width="160" height="165" viewBox="0 0 160 165" fill="none" xmlns="http://www.w3.org/2000/svg">
<path d="M144.085 105.817C143.319 107.973 143.962 109.89 145.813 110.558C147.844 111.293 149.002 109.755 150.258 108.133C151.25 106.824 151.873 106.216 152.851 106.569C153.814 106.917 154.138 107.919 153.736 109.05C153.28 110.331 152.296 110.809 151.259 110.859L151.518 112.28C153.051 112.171 154.474 111.273 155.09 109.539C155.717 107.775 155.186 105.831 153.29 105.146C151.333 104.439 150.228 105.876 149.086 107.369C148.053 108.748 147.359 109.552 146.276 109.161C145.328 108.818 144.913 107.835 145.444 106.342C145.99 104.804 147.064 104.172 148.357 104.213L148.093 102.757C146.315 102.744 144.798 103.812 144.085 105.817Z" fill="black"/>
<path d="M138.964 116.694C137.944 118.506 137.993 120.636 138.968 122.264L140.242 121.5C139.501 120.338 139.474 118.756 140.228 117.418C141.515 115.131 144.031 114.544 146.155 115.76C148.294 116.984 149.083 119.464 147.795 121.75C147.041 123.089 145.68 123.876 144.297 123.822L144.313 125.325C146.207 125.321 148.032 124.264 149.045 122.466C150.725 119.482 149.682 116.083 146.878 114.477C144.087 112.879 140.644 113.711 138.964 116.694Z" fill="black"/>
<path d="M130.863 128.177L129.816 129.449L134.929 130.286C134.443 131.632 134.817 133.217 135.946 134.162C137.418 135.395 139.604 135.18 140.825 133.698L143.672 130.239L135.083 123.05L134.138 124.199L137.426 126.951L135.748 128.989L130.863 128.177ZM141.659 130.494L139.757 132.804C139.056 133.657 137.775 133.753 136.891 133.013C136.008 132.274 135.853 130.976 136.555 130.124L138.456 127.814L141.659 130.494Z" fill="black"/>
<path d="M123.79 134.511C121.301 136.597 120.987 140.242 123.033 142.723C125.088 145.217 128.689 145.561 131.178 143.475C133.667 141.388 133.979 137.767 131.923 135.272C129.878 132.791 126.28 132.425 123.79 134.511ZM124.716 135.634C126.592 134.062 129.238 134.329 130.795 136.218C132.362 138.119 132.138 140.791 130.262 142.364C128.386 143.936 125.74 143.669 124.173 141.768C122.616 139.879 122.84 137.207 124.716 135.634Z" fill="black"/>
<path d="M116.34 141.734L121.185 150.244L122.473 149.498L116.932 139.765L111.462 142.931L112.158 144.155L116.34 141.734Z" fill="black"/>
<path d="M107.836 146.024L111.457 155.122L112.836 154.563L108.694 144.157L102.836 146.528L103.356 147.837L107.836 146.024Z" fill="black"/>
<path d="M88.619 160.898L96.6094 159.698L96.4036 158.305L93.1442 158.795L91.7132 149.108L90.2576 149.327L91.6885 159.014L88.4133 159.506L88.619 160.898Z" fill="black"/>
<path d="M79.1676 149.614C75.921 149.521 73.2888 152.038 73.1979 155.253C73.1065 158.484 75.5926 161.132 78.8393 161.226C82.086 161.319 84.7017 158.817 84.7931 155.586C84.884 152.372 82.4143 149.708 79.1676 149.614ZM79.1265 151.07C81.5735 151.14 83.3909 153.097 83.3217 155.544C83.252 158.007 81.327 159.857 78.88 159.786C76.433 159.716 74.6156 157.759 74.6853 155.296C74.7544 152.849 76.6795 150.999 79.1265 151.07Z" fill="black"/>
<path d="M62.8764 148.6L61.8511 152.001L57.3384 150.617L56.9366 151.95L61.4493 153.333L60.4564 156.627L55.5613 155.126L55.1549 156.474L61.4727 158.411L64.7055 147.688L58.3112 145.728L57.9048 147.076L62.8764 148.6Z" fill="black"/>
<path d="M48.2105 140.992L48.9726 147.775L43.6048 151.205L45.1174 151.936L49.1592 149.358L49.6985 154.15L51.2112 154.881L50.4921 148.491L56.2059 144.855L54.6933 144.124L50.3199 146.916L49.7376 141.73L48.2105 140.992Z" fill="black"/>
<path d="M36.495 146.484L39.8242 148.815L46.1755 139.59L44.9566 138.737L42.6882 142.031L40.578 140.554C38.8872 139.37 36.7266 139.772 35.5743 141.445C34.4129 143.132 34.8042 145.3 36.495 146.484ZM39.7886 141.7L41.8989 143.178L39.3946 146.815L37.2844 145.338C36.2751 144.631 36.0543 143.344 36.7801 142.289C37.4969 141.248 38.7794 140.994 39.7886 141.7Z" fill="black"/>
<path d="M35.3691 132.903L28.6626 140.038L29.7383 141.066L37.4091 132.905L32.8404 128.538L31.8761 129.564L35.3691 132.903Z" fill="black"/>
<path d="M27.9596 122.038C26.0307 119.425 22.4373 118.921 19.8652 120.852C17.2804 122.792 16.7406 126.398 18.6695 129.011C20.5985 131.624 24.1696 132.124 26.7544 130.184C29.3265 128.254 29.8886 124.651 27.9596 122.038ZM26.7952 122.912C28.249 124.881 27.838 127.53 25.8802 129C23.9096 130.479 21.2751 130.116 19.8212 128.147C18.3674 126.177 18.7783 123.528 20.749 122.049C22.7068 120.579 25.3413 120.942 26.7952 122.912Z" fill="black"/>
<path d="M20.244 108.911L19.5242 107.429L16.6603 111.787C15.6428 110.791 14.0545 110.486 12.7346 111.138C11.013 111.988 10.3062 114.086 11.1448 115.813L13.1016 119.843L23.1442 114.885L22.4943 113.546L18.6494 115.444L17.4963 113.069L20.244 108.911ZM13.6998 117.888L12.393 115.196C11.9108 114.203 12.3515 112.986 13.3845 112.476C14.4174 111.967 15.6552 112.355 16.1375 113.348L17.4443 116.039L13.6998 117.888Z" fill="black"/>
<path d="M16.9295 103.763L13.538 104.819L12.1563 100.305L10.8272 100.719L12.2089 105.232L8.9244 106.255L7.42559 101.359L6.08122 101.778L8.01562 108.096L18.7094 104.767L16.7516 98.3721L15.4072 98.7906L16.9295 103.763Z" fill="black"/>
<path d="M18.4633 61.6881C19.142 59.503 18.4218 57.6145 16.5451 57.0218C14.4854 56.3712 13.3904 57.9549 12.2011 59.6263C11.263 60.9744 10.6643 61.6074 9.67255 61.2942C8.6961 60.9858 8.33261 59.9985 8.68856 58.8525C9.09198 57.5537 10.0569 57.0363 11.091 56.9434L10.7746 55.5347C9.24686 55.7066 7.86122 56.6616 7.31542 58.4188C6.76013 60.2065 7.3698 62.1273 9.29219 62.7345C11.2756 63.3609 12.3222 61.8794 13.403 60.3415C14.3801 58.9219 15.0405 58.0902 16.139 58.4371C17.1002 58.7407 17.5542 59.7063 17.0844 61.219C16.6003 62.7775 15.5526 63.4534 14.2592 63.4643L14.5813 64.9084C16.3589 64.849 17.832 63.7203 18.4633 61.6881Z" fill="black"/>
<path d="M23.1441 50.6141C24.0906 48.7619 23.9551 46.636 22.9151 45.0498L21.6722 45.8645C22.46 46.9951 22.5511 48.575 21.8521 49.9427C20.6581 52.2793 18.1677 52.9686 15.9954 51.8399C13.809 50.7038 12.9204 48.2586 14.1144 45.922C14.8133 44.5543 16.1421 43.7121 17.5265 43.7103L17.449 42.2095C15.5571 42.2902 13.7758 43.4201 12.8366 45.2581C11.2785 48.307 12.4577 51.6604 15.3256 53.1507C18.1794 54.6335 21.586 53.663 23.1441 50.6141Z" fill="black"/>
<path d="M30.7731 38.8106L31.7681 37.4968L26.6247 36.868C27.0558 35.5038 26.6182 33.935 25.452 33.0369C23.9308 31.8654 21.7545 32.1685 20.5953 33.6991L17.8906 37.2705L26.7644 44.104L27.6627 42.9177L24.2654 40.3015L25.8592 38.1969L30.7731 38.8106ZM19.8919 36.9336L21.6982 34.5484C22.3647 33.6683 23.6409 33.5202 24.5536 34.2231C25.4664 34.9259 25.6734 36.2162 25.0068 37.0963L23.2005 39.4815L19.8919 36.9336Z" fill="black"/>
<path d="M37.5881 32.1919C39.9907 30.0062 40.156 26.3517 38.0117 23.955C35.8567 21.5463 32.2454 21.3492 29.8429 23.5349C27.4404 25.7207 27.2762 29.3524 29.4312 31.7611C31.5755 34.1579 35.1856 34.3776 37.5881 32.1919ZM36.6173 31.1068C34.8065 32.7542 32.1523 32.5949 30.52 30.7705C28.8771 28.9342 28.9923 26.2555 30.8031 24.6081C32.6138 22.9608 35.2681 23.12 36.911 24.9563C38.5433 26.7807 38.4281 29.4594 36.6173 31.1068Z" fill="black"/>
<path d="M44.7379 24.6686L39.5532 16.3618L38.2969 17.1592L44.227 26.6604L49.5631 23.2738L48.8176 22.0794L44.7379 24.6686Z" fill="black"/>
<path d="M53.0595 20.0338L49.0741 11.0895L47.7188 11.7036L52.2772 21.934L58.0339 19.3257L57.4608 18.0396L53.0595 20.0338Z" fill="black"/>
<path d="M71.6611 4.38254L63.7266 5.90869L63.9883 7.29216L67.2249 6.66961L69.0449 16.291L70.4904 16.013L68.6704 6.39158L71.9228 5.766L71.6611 4.38254Z" fill="black"/>
<path d="M81.5638 15.2691C84.8115 15.2295 87.3402 12.6064 87.3016 9.39066C87.2629 6.15889 84.6721 3.61431 81.4244 3.65394C78.1766 3.69357 75.6637 6.30042 75.7025 9.53219C75.7411 12.748 78.316 15.3087 81.5638 15.2691ZM81.5463 13.8132C79.0985 13.8431 77.2038 11.9621 77.1744 9.51423C77.1448 7.05041 78.9938 5.12371 81.4417 5.09384C83.8895 5.06397 85.7842 6.94499 85.8137 9.40882C85.8431 11.8566 83.9941 13.7833 81.5463 13.8132Z" fill="black"/>
<path d="M97.8798 15.614L98.7672 12.1746L103.333 13.3724L103.68 12.0245L99.1149 10.8268L99.9743 7.49583L104.927 8.79507L105.278 7.43171L98.8867 5.75488L96.0888 16.5998L102.558 18.2969L102.91 16.9335L97.8798 15.614Z" fill="black"/>
<path d="M112.841 22.6141L111.805 15.8686L117.031 12.2233L115.49 11.5547L111.555 14.2949L110.822 9.52973L109.281 8.8611L110.258 15.2147L104.695 19.0799L106.236 19.7485L110.494 16.782L111.285 21.9391L112.841 22.6141Z" fill="black"/>
<path d="M124.324 16.6498L120.902 14.4565L114.93 23.931L116.182 24.734L118.315 21.3503L120.484 22.7405C122.222 23.8544 124.364 23.3655 125.448 21.6466C126.54 19.9141 126.061 17.7637 124.324 16.6498ZM121.226 21.5629L119.058 20.1728L121.413 16.4371L123.581 17.8273C124.619 18.4922 124.891 19.7694 124.209 20.8522C123.535 21.9214 122.264 22.2278 121.226 21.5629Z" fill="black"/>
<path d="M125.998 30.1712L132.41 22.7702L131.293 21.7866L123.959 30.2518L128.702 34.4294L129.624 33.3652L125.998 30.1712Z" fill="black"/>
<path d="M133.838 40.7244C135.871 43.2573 139.482 43.6146 141.973 41.5809C144.477 39.5372 144.87 35.9119 142.837 33.379C140.803 30.8462 137.215 30.4912 134.712 32.535C132.22 34.5686 131.805 38.1915 133.838 40.7244ZM134.966 39.8037C133.433 37.8947 133.737 35.2309 135.633 33.6829C137.542 32.1248 140.189 32.3806 141.721 34.2896C143.254 36.1986 142.95 38.8625 141.042 40.4206C139.145 41.9686 136.498 41.7127 134.966 39.8037Z" fill="black"/>
<path d="M142.077 53.5255L142.856 54.9777L145.54 50.5058C146.597 51.4602 148.196 51.6996 149.489 50.9947C151.174 50.0751 151.795 47.9502 150.888 46.2583L148.77 42.3105L138.937 47.6744L139.641 48.9856L143.405 46.932L144.653 49.2583L142.077 53.5255ZM148.251 44.2884L149.666 46.9249C150.187 47.8978 149.796 49.1317 148.785 49.6834C147.774 50.2351 146.521 49.8977 146 48.9249L144.585 46.2883L148.251 44.2884Z" fill="black"/>
<path d="M145.598 58.5356L148.944 57.3421L150.506 61.7959L151.817 61.3282L150.255 56.8744L153.495 55.7185L155.19 60.5498L156.516 60.0767L154.328 53.8413L143.779 57.6046L145.993 63.9155L147.32 63.4424L145.598 58.5356Z" fill="black"/>
</svg>
