<svg width="28" height="28" viewBox="0 0 28 28" fill="none" xmlns="http://www.w3.org/2000/svg">
<path d="M16.0467 12.3217C16.439 12.5482 16.9407 12.4137 17.1672 12.0215L18.261 10.127C18.3698 9.93863 18.3992 9.71469 18.343 9.50458C18.2867 9.29441 18.1492 9.11526 17.9607 9.00648L17.2171 8.57708C17.2961 8.18541 17.336 7.7858 17.336 7.38281C17.336 6.97982 17.2961 6.58022 17.2171 6.18855L17.9607 5.75914C18.1491 5.65037 18.2866 5.47121 18.343 5.26105C18.3993 5.05088 18.3698 4.82699 18.261 4.63859L17.1672 2.74416C16.9407 2.35184 16.4391 2.21741 16.0467 2.44393L15.3028 2.87339C14.6984 2.33773 13.9982 1.93309 13.2345 1.67814V0.820312C13.2345 0.367281 12.8672 0 12.4142 0H10.2267C9.77365 0 9.40636 0.367281 9.40636 0.820312V1.67814C8.64265 1.93309 7.94243 2.33773 7.33797 2.87339L6.59417 2.44393C6.20184 2.2173 5.70008 2.35178 5.47362 2.74416L4.37987 4.63859C4.15336 5.03092 4.28778 5.53262 4.68011 5.75914L5.42375 6.18849C5.34467 6.58022 5.30475 6.97982 5.30475 7.38276C5.30475 7.7857 5.34461 8.18535 5.42375 8.57702L4.68011 9.00638C4.28778 9.23289 4.15336 9.73459 4.37987 10.1269L5.47362 12.0214C5.70014 12.4137 6.20179 12.5482 6.59417 12.3216L7.33797 11.8921C7.94243 12.4278 8.6426 12.8324 9.40636 13.0874V13.9453C9.40636 14.3983 9.77365 14.7656 10.2267 14.7656H12.4142C12.8672 14.7656 13.2345 14.3983 13.2345 13.9453V13.0875C13.9982 12.8325 14.6984 12.4279 15.3028 11.8922L16.0467 12.3217ZM11.3204 9.57031C10.1123 9.57031 9.13287 8.59091 9.13287 7.38281C9.13287 6.17471 10.1123 5.19531 11.3204 5.19531C12.5285 5.19531 13.5079 6.17471 13.5079 7.38281C13.5079 8.59091 12.5285 9.57031 11.3204 9.57031Z" fill="black"/>
<path d="M27.5899 22.2409L26.8462 21.8115C26.9253 21.4198 26.9651 21.0202 26.9651 20.6172C26.9651 20.2142 26.9253 19.8146 26.8462 19.4229L27.5899 18.9935C27.7783 18.8847 27.9158 18.7056 27.9721 18.4954C28.0284 18.2853 27.9989 18.0614 27.8901 17.873L26.7964 15.9785C26.5698 15.5862 26.0682 15.4518 25.6758 15.6783L24.9319 16.1078C24.3275 15.5721 23.6273 15.1675 22.8636 14.9125V14.0547C22.8636 13.6017 22.4963 13.2344 22.0433 13.2344H19.8558C19.4028 13.2344 19.0355 13.6017 19.0355 14.0547V14.9125C18.2718 15.1675 17.5716 15.5721 16.9671 16.1078L16.2233 15.6783C15.831 15.4517 15.3292 15.5862 15.1027 15.9785L14.009 17.873C13.7825 18.2653 13.9169 18.767 14.3092 18.9935L15.0529 19.4229C14.9738 19.8146 14.9339 20.2142 14.9339 20.6171C14.9339 21.0201 14.9737 21.4197 15.0529 21.8114L14.3092 22.2407C13.9169 22.4673 13.7825 22.969 14.009 23.3613L15.1027 25.2557C15.3293 25.6481 15.8309 25.7825 16.2233 25.556L16.9671 25.1265C17.5716 25.6622 18.2717 26.0668 19.0355 26.3218V27.1797C19.0355 27.6327 19.4028 28 19.8558 28H22.0433C22.4963 28 22.8636 27.6327 22.8636 27.1797V26.3219C23.6273 26.0669 24.3275 25.6623 24.9319 25.1266L25.6758 25.5561C26.0681 25.7826 26.5698 25.6481 26.7964 25.2558L27.8901 23.3614C27.9989 23.173 28.0284 22.9491 27.9721 22.739C27.9158 22.5288 27.7783 22.3496 27.5899 22.2409ZM20.9495 22.8047C19.7414 22.8047 18.762 21.8253 18.762 20.6172C18.762 19.4091 19.7414 18.4297 20.9495 18.4297C22.1576 18.4297 23.137 19.4091 23.137 20.6172C23.137 21.8253 22.1576 22.8047 20.9495 22.8047Z" fill="black"/>
<path d="M12.0968 19.5136L11.003 17.6192C10.7765 17.2268 10.2748 17.0924 9.88248 17.3189L9.32877 17.6386C8.93031 17.3225 8.48849 17.0669 8.01747 16.88V16.2422C8.01747 15.7892 7.65019 15.4219 7.19716 15.4219H5.00966C4.55663 15.4219 4.18935 15.7892 4.18935 16.2422V16.88C3.71838 17.0669 3.27656 17.3225 2.87805 17.6386L2.32434 17.3189C1.93195 17.0923 1.43031 17.2268 1.20379 17.6192L0.110041 19.5136C-0.116529 19.9059 0.0178926 20.4076 0.410275 20.6341L0.963713 20.9537C0.92669 21.2045 0.908041 21.4576 0.908041 21.7109C0.908041 21.9642 0.92669 22.2173 0.963713 22.4681L0.410275 22.7876C0.0178926 23.0141 -0.116529 23.5158 0.110041 23.9082L1.20379 25.8026C1.43036 26.195 1.93201 26.3294 2.32434 26.1028L2.87805 25.7831C3.2765 26.0993 3.71832 26.3549 4.18935 26.5418V27.1797C4.18935 27.6327 4.55663 28 5.00966 28H7.19716C7.65019 28 8.01747 27.6327 8.01747 27.1797V26.5419C8.48844 26.355 8.93026 26.0994 9.32877 25.7832L9.88248 26.1029C10.2747 26.3295 10.7765 26.195 11.003 25.8027L12.0968 23.9083C12.3233 23.516 12.1889 23.0143 11.7965 22.7877L11.2431 22.4682C11.2801 22.2174 11.2988 21.9643 11.2988 21.711C11.2988 21.4577 11.2801 21.2046 11.2431 20.9538L11.7965 20.6343C12.1889 20.4077 12.3233 19.906 12.0968 19.5136ZM6.10341 23.3516C5.19729 23.3516 4.46278 22.6171 4.46278 21.7109C4.46278 20.8048 5.19729 20.0703 6.10341 20.0703C7.00953 20.0703 7.74403 20.8048 7.74403 21.7109C7.74403 22.6171 7.00953 23.3516 6.10341 23.3516Z" fill="black"/>
</svg>
