<svg width="28" height="28" viewBox="0 0 28 28" fill="none" xmlns="http://www.w3.org/2000/svg">
<path d="M25.4224 10.5437H24.8279C24.6348 9.93945 24.3912 9.35244 24.0993 8.78845L24.5203 8.36746C25.541 7.34781 25.5137 5.71375 24.5206 4.72172L23.2786 3.47977C22.2872 2.48702 20.6528 2.45826 19.6329 3.47938L19.2116 3.9007C18.6476 3.60888 18.0605 3.3652 17.4563 3.17209V2.57759C17.4563 1.15631 16.2999 0 14.8786 0H13.1213C11.7001 0 10.5437 1.15631 10.5437 2.57759V3.17209C9.93951 3.36514 9.35244 3.60883 8.78845 3.9007L8.36752 3.47977C7.34962 2.46066 5.71528 2.48456 4.72183 3.47944L3.47971 4.72145C2.48702 5.71304 2.45831 7.34721 3.47938 8.36719L3.9007 8.7885C3.60883 9.35249 3.3652 9.93945 3.17209 10.5438H2.57764C1.15637 10.5437 0 11.7001 0 13.1213V14.8787C0 16.2999 1.15637 17.4563 2.57764 17.4563H3.17209C3.3652 18.0605 3.60883 18.6476 3.9007 19.2116L3.47971 19.6325C2.45897 20.6522 2.48631 22.2863 3.47938 23.2783L4.72139 24.5202C5.71282 25.513 7.34721 25.5417 8.36713 24.5206L8.78845 24.0993C9.35244 24.3911 9.93951 24.6348 10.5437 24.8279V25.4224C10.5437 26.8437 11.7001 28 13.1214 28H14.8787C16.2999 28 17.4563 26.8437 17.4563 25.4224V24.8279C18.0605 24.6349 18.6476 24.3912 19.2116 24.0993L19.6325 24.5202C20.6504 25.5393 22.2847 25.5154 23.2782 24.5206L24.5203 23.2785C25.513 22.2869 25.5417 20.6527 24.5207 19.6328L24.0994 19.2114C24.3912 18.6475 24.6349 18.0605 24.828 17.4561H25.4224C26.8437 17.4561 28.0001 16.2998 28.0001 14.8786V13.1212C28 11.7001 26.8436 10.5437 25.4224 10.5437ZM14 20.0922C10.6407 20.0922 7.90781 17.3592 7.90781 14C7.90781 10.6408 10.6407 7.90781 14 7.90781C17.3593 7.90781 20.0922 10.6408 20.0922 14C20.0922 17.3592 17.3593 20.0922 14 20.0922Z" fill="black"/>
</svg>
