<svg width="28" height="28" viewBox="0 0 28 28" fill="none" xmlns="http://www.w3.org/2000/svg">
<g clip-path="url(#clip0_1_755)">
<path d="M12.8156 28C14.9286 28 16.6961 26.4937 17.102 24.5H8.5293C8.93539 26.4937 10.7029 28 12.8156 28Z" fill="black"/>
<path d="M20.9964 13.9989C20.9917 13.9989 20.987 14 20.9823 14C16.4802 14 12.8157 10.3366 12.8157 5.8334C12.8157 4.59546 13.1005 3.42523 13.5963 2.37292C13.3395 2.34857 13.0793 2.3334 12.8157 2.3334C8.30547 2.3334 4.6491 5.98956 4.6491 10.5V13.7526C4.6491 16.0615 3.6376 18.2408 1.86303 19.7411C1.27151 20.2463 1.00897 21.0513 1.22131 21.8365C1.46868 22.75 2.37167 23.3334 3.31909 23.3334H22.3065C23.3005 23.3334 24.2375 22.6893 24.4391 21.7152C24.5955 20.9615 24.3272 20.209 23.7427 19.7178C22.0463 18.2957 21.0652 16.2061 20.9964 13.9989Z" fill="black"/>
<path d="M26.8156 5.8334C26.8156 9.05505 24.2041 11.6666 20.9822 11.6666C17.7606 11.6666 15.149 9.05505 15.149 5.8334C15.149 2.61176 17.7606 0 20.9822 0C24.2041 0 26.8156 2.61176 26.8156 5.8334Z" fill="black"/>
</g>
<defs>
<clipPath id="clip0_1_755">
<rect width="28" height="28" fill="white"/>
</clipPath>
</defs>
</svg>
