<svg width="28" height="28" viewBox="0 0 28 28" fill="none" xmlns="http://www.w3.org/2000/svg">
<g clip-path="url(#clip0_1_726)">
<path d="M25.6667 12.6957C25.0227 12.6957 24.5 12.173 24.5 11.529C24.5 8.2565 23.226 5.18117 20.9125 2.8665C20.4563 2.41034 20.4563 1.673 20.9125 1.21684C21.3687 0.760668 22.106 0.760668 22.5622 1.21684C25.3167 3.97133 26.8333 7.6335 26.8333 11.529C26.8333 12.173 26.3107 12.6957 25.6667 12.6957Z" fill="black"/>
<path d="M2.33333 12.6957C1.68933 12.6957 1.16666 12.173 1.16666 11.529C1.16666 7.6335 2.68333 3.97133 5.43783 1.21684C5.894 0.760668 6.63133 0.760668 7.0875 1.21684C7.54366 1.673 7.54366 2.41034 7.0875 2.8665C4.774 5.18 3.5 8.2565 3.5 11.529C3.5 12.173 2.97733 12.6957 2.33333 12.6957Z" fill="black"/>
<path d="M24.9422 19.7318C23.1782 18.2408 22.1667 16.0615 22.1667 13.7527V10.5C22.1667 6.3945 19.117 2.996 15.1667 2.42667V1.16667C15.1667 0.5215 14.644 0 14 0C13.356 0 12.8333 0.5215 12.8333 1.16667V2.42667C8.88184 2.996 5.83334 6.3945 5.83334 10.5V13.7527C5.83334 16.0615 4.82184 18.2408 3.04734 19.7412C2.5935 20.1297 2.33334 20.6943 2.33334 21.2917C2.33334 22.4175 3.24917 23.3333 4.375 23.3333H23.625C24.7508 23.3333 25.6667 22.4175 25.6667 21.2917C25.6667 20.6943 25.4065 20.1297 24.9422 19.7318Z" fill="black"/>
<path d="M14 28C16.1128 28 17.8803 26.4938 18.2863 24.5H9.71367C10.1197 26.4938 11.8872 28 14 28Z" fill="black"/>
</g>
<defs>
<clipPath id="clip0_1_726">
<rect width="28" height="28" fill="white"/>
</clipPath>
</defs>
</svg>
